<svg width="40" height="40" fill="none" xmlns="http://www.w3.org/2000/svg"><g clip-path="url(#clip0)"><path d="M23.75 16.75l-7.25 15h17.75v-15h-10.5z" fill="#F8A4A7"/><path d="M9.063 32.188a2.346 2.346 0 0 0-2.344 2.343 2.346 2.346 0 0 0 2.343 2.344 2.346 2.346 0 0 0 2.344-2.344 2.346 2.346 0 0 0-2.344-2.343zm0 3.124a.782.782 0 1 1 0-1.563.782.782 0 0 1 0 1.563z" fill="#003143"/><path d="M37.656 32.188h-1.25V15.311a.781.781 0 0 0-.781-.78h-3.906V3.905a.781.781 0 0 0-.782-.781H15.313a.781.781 0 0 0-.78.781v28.282h-.528a5.437 5.437 0 0 0-2.598-2.599V2.345A2.346 2.346 0 0 0 9.062 0H2.345A2.346 2.346 0 0 0 0 2.344a2.346 2.346 0 0 0 2.344 2.344h4.375V29.59a5.48 5.48 0 0 0-3.125 4.941A5.475 5.475 0 0 0 9.063 40a5.48 5.48 0 0 0 4.941-3.125h23.652A2.346 2.346 0 0 0 40 34.531a2.346 2.346 0 0 0-2.344-2.343zm-2.812 0h-18.75V16.093h5.468v8.281a.782.782 0 0 0 1.25.625l2.657-1.992L28.125 25a.781.781 0 0 0 1.25-.625v-8.281h5.469v16.093zM23.125 16.093h4.688v6.718l-1.875-1.406a.782.782 0 0 0-.938 0l-1.875 1.407v-6.72zM21.562 4.687h3.125v4.478l-1.129-.753a.78.78 0 0 0-.866 0l-1.13.753V4.688zm-1.562 0v5.938a.782.782 0 0 0 1.215.65l1.91-1.274 1.91 1.274a.781.781 0 0 0 1.215-.65V4.687h3.906v9.844H16.094V4.687H20zM2.344 3.125a.782.782 0 0 1 0-1.563h6.719c.43 0 .78.35.78.782v26.775a5.49 5.49 0 0 0-1.562 0V3.906a.781.781 0 0 0-.781-.781H2.344zm6.719 35.313a3.91 3.91 0 0 1-3.907-3.907 3.907 3.907 0 1 1 3.907 3.907zm28.593-3.126H14.475a5.505 5.505 0 0 0 0-1.562h23.181a.782.782 0 0 1 0 1.563z" fill="#003143"/><path d="M32.5 30.625c.431 0 .781-.35.781-.781V28.28a.781.781 0 1 0-1.562 0v1.563c0 .431.35.781.781.781zm0-6.25a.782.782 0 1 1 0 1.563.782.782 0 0 1 0-1.563zM29.375 27.5a.781.781 0 0 0-.781.781v1.563a.781.781 0 1 0 1.562 0V28.28a.781.781 0 0 0-.781-.781z" fill="#003143"/></g><defs><clipPath id="clip0"><path fill="#fff" d="M0 0h40v40H0z"/></clipPath></defs></svg>