<svg width="40" height="40" fill="none" xmlns="http://www.w3.org/2000/svg"><g clip-path="url(#clip0)"><path d="M24 22.5v8.75l4.5-5.5h5.25l4.25 5.5V20l-4.25-8L24 22.5z" fill="#F8A4A7"/><path d="M8.687 28.84a4.18 4.18 0 0 0-4.175 4.177 4.18 4.18 0 0 0 4.175 4.175 4.18 4.18 0 0 0 4.176-4.175 4.18 4.18 0 0 0-4.176-4.176zm0 7.164A2.991 2.991 0 0 1 5.7 33.017a2.991 2.991 0 0 1 2.987-2.988 2.99 2.99 0 0 1 2.988 2.988 2.99 2.99 0 0 1-2.988 2.987z" fill="#003143"/><path d="M8.688 30.884a2.135 2.135 0 0 0-2.133 2.133c0 1.176.957 2.133 2.133 2.133a2.136 2.136 0 0 0 2.133-2.133 2.136 2.136 0 0 0-2.133-2.133zm0 3.077a.946.946 0 1 1 .001-1.89.946.946 0 0 1-.001 1.89z" fill="#003143"/><path d="M39.96 19.9l-2.69-6.973a4.276 4.276 0 0 0-3.966-2.721h-10.42a.594.594 0 0 0-.595.594v13.627h-1.263V8.95a.594.594 0 0 0-.594-.594h-1.314a3.39 3.39 0 0 0 .823-2.216 3.408 3.408 0 0 0-3.404-3.405 3.408 3.408 0 0 0-3.404 3.405v.516a2.799 2.799 0 0 0-3.25 0V6.14A3.408 3.408 0 0 0 6.48 2.734 3.408 3.408 0 0 0 3.075 6.14c0 .846.31 1.62.824 2.216H2.585a.594.594 0 0 0-.594.594v15.478H.594a.594.594 0 0 0-.594.594v7.996c0 .328.266.593.594.593h2.202a.594.594 0 0 0 .594-.593 5.303 5.303 0 0 1 5.298-5.298 5.303 5.303 0 0 1 5.297 5.298c0 .328.266.593.594.593h10.554a.594.594 0 0 0 .594-.593 5.303 5.303 0 0 1 5.297-5.298c1.138 0 2.222.355 3.135 1.027a.594.594 0 1 0 .704-.957 6.434 6.434 0 0 0-3.839-1.258 6.494 6.494 0 0 0-6.458 5.892h-1.088V11.393h9.826c1.257 0 2.405.788 2.858 1.96l2.65 6.87v12.198h-1.33a6.43 6.43 0 0 0-1.177-3.171.594.594 0 0 0-.967.69c.643.901.983 1.965.983 3.075 0 .328.267.595.595.595h2.49a.594.594 0 0 0 .594-.595V20.114a.589.589 0 0 0-.04-.213zm-25.639-5.723h5.517v10.25h-5.517v-10.25zm5.517-1.188h-5.517V9.543h5.517v3.446zm-5.517-6.85a2.22 2.22 0 0 1 2.216-2.217 2.22 2.22 0 0 1 2.216 2.217 2.219 2.219 0 0 1-2.216 2.216h-2.216V6.139zm-2.813 1.185c.687 0 1.273.428 1.51 1.03h-3.02a1.626 1.626 0 0 1 1.51-1.03zM4.263 6.14a2.22 2.22 0 0 1 2.216-2.217A2.22 2.22 0 0 1 8.696 6.14v2.216H6.479A2.219 2.219 0 0 1 4.263 6.14zm4.433 3.404v3.446H3.179V9.543h5.517zm-5.517 4.634h5.517v3.205a.594.594 0 1 0 1.188 0v-7.84h3.249v14.885H9.884v-5.002a.594.594 0 1 0-1.188 0v5.002H3.179v-10.25zm5.509 12.354a6.494 6.494 0 0 0-6.459 5.892H1.188v-6.808H22.29v6.808h-7.143a6.494 6.494 0 0 0-6.458-5.892z" fill="#003143"/><path fill-rule="evenodd" clip-rule="evenodd" d="M35.36 28.95a.794.794 0 0 1 1.108.185 6.63 6.63 0 0 1 1.195 3.087h.949v-11.96l-2.637-6.835a2.882 2.882 0 0 0-2.67-1.833h-9.628v20.628h.709a6.693 6.693 0 0 1 6.638-5.89c1.435 0 2.804.447 3.957 1.296a.794.794 0 1 1-.94 1.279 5.056 5.056 0 0 0-3.017-.988 5.103 5.103 0 0 0-5.097 5.098.794.794 0 0 1-.794.794H14.579a.794.794 0 0 1-.794-.794 5.103 5.103 0 0 0-5.097-5.098 5.103 5.103 0 0 0-5.098 5.098.794.794 0 0 1-.794.794H.594a.794.794 0 0 1-.794-.794V25.02c0-.439.355-.794.794-.794H1.79V8.95c0-.439.356-.794.795-.794h.909a3.581 3.581 0 0 1-.619-2.016A3.608 3.608 0 0 1 6.48 2.534a3.608 3.608 0 0 1 3.605 3.605v.157a2.994 2.994 0 0 1 2.85 0v-.157a3.608 3.608 0 0 1 3.603-3.605 3.608 3.608 0 0 1 3.604 3.605c0 .746-.229 1.44-.619 2.016h.91c.439 0 .794.356.794.794v15.278h.863V10.8c0-.439.356-.794.794-.794h10.421a4.477 4.477 0 0 1 4.153 2.849l2.69 6.973a.79.79 0 0 1 .053.286v12.902a.794.794 0 0 1-.794.795h-2.49a.794.794 0 0 1-.795-.795 5.06 5.06 0 0 0-.946-2.958.794.794 0 0 1 .185-1.108zm4.6-9.05l-2.69-6.973a4.277 4.277 0 0 0-3.966-2.721h-10.42a.594.594 0 0 0-.595.594v13.627h-1.263V8.95a.594.594 0 0 0-.594-.594h-1.314a3.385 3.385 0 0 0 .823-2.216 3.408 3.408 0 0 0-3.404-3.405 3.408 3.408 0 0 0-3.404 3.405v.516a2.795 2.795 0 0 0-1.625-.519 2.794 2.794 0 0 0-1.624.519V6.14a3.408 3.408 0 0 0-3.405-3.405A3.408 3.408 0 0 0 3.075 6.14a3.383 3.383 0 0 0 .823 2.216H2.585a.594.594 0 0 0-.595.594v15.478H.594a.594.594 0 0 0-.594.594v7.996c0 .328.266.594.594.594h2.202a.594.594 0 0 0 .594-.594 5.303 5.303 0 0 1 5.298-5.298 5.303 5.303 0 0 1 5.297 5.298c0 .328.266.594.594.594h10.554a.594.594 0 0 0 .594-.594 5.303 5.303 0 0 1 5.297-5.298c1.137 0 2.222.355 3.135 1.027a.594.594 0 1 0 .703-.957 6.435 6.435 0 0 0-3.838-1.258 6.494 6.494 0 0 0-6.459 5.892h-1.088V11.393h9.827c1.257 0 2.405.788 2.858 1.96l2.65 6.871v12.197h-1.33a6.43 6.43 0 0 0-1.177-3.171.594.594 0 0 0-.967.69c.643.901.983 1.965.983 3.075 0 .328.266.595.594.595h2.49a.594.594 0 0 0 .595-.595V20.114a.588.588 0 0 0-.04-.213zm-18.734-6.33c0-.001 0-.001 0 0zm-1.588.808H14.52v9.85h5.117v-9.85zM14.52 12.79h5.117V9.743H14.52v3.046zm2.016-8.667A2.019 2.019 0 0 0 14.52 6.14v2.016h2.016a2.019 2.019 0 0 0 2.016-2.016 2.019 2.019 0 0 0-2.016-2.017zm-3.848 4.033a1.422 1.422 0 0 0-2.361 0h2.36zm.234 0a1.623 1.623 0 0 0-1.415-.83 1.624 1.624 0 0 0-1.51 1.03h3.02a1.624 1.624 0 0 0-.095-.2zM6.48 4.122A2.019 2.019 0 0 0 4.463 6.14a2.02 2.02 0 0 0 2.016 2.016h2.016V6.139A2.019 2.019 0 0 0 6.48 4.122zm2.016 8.667V9.743H3.38v3.046h5.116zm0 1.588H3.38v9.85h5.116v-4.802a.794.794 0 1 1 1.589 0v4.802h2.849V9.743h-2.85v7.639a.794.794 0 1 1-1.588 0v-3.005zM2.05 32.222a6.694 6.694 0 0 1 6.639-5.89 6.694 6.694 0 0 1 6.638 5.89h6.763v-6.407H1.388v6.407h.661zm.18.2a6.494 6.494 0 0 1 6.459-5.89 6.494 6.494 0 0 1 6.458 5.89h7.143v-6.807H1.188v6.808h1.041zm12.092-18.245v10.25h5.517v-10.25H14.32zm5.517-1.188V9.543H14.32v3.446h5.517zm-3.301-9.067a2.219 2.219 0 0 0-2.216 2.217v2.216h2.216a2.219 2.219 0 0 0 2.216-2.216 2.219 2.219 0 0 0-2.216-2.217zm-10.058 0A2.219 2.219 0 0 0 4.263 6.14c0 1.222.994 2.216 2.216 2.216h2.216V6.139A2.219 2.219 0 0 0 6.48 3.922zm2.216 5.62H3.18v3.447h5.516V9.543zM3.18 14.178v10.25h5.516v-5.002a.594.594 0 1 1 1.189 0v5.002h3.249V9.543h-3.25v7.839a.594.594 0 1 1-1.188 0v-3.205H3.18z" fill="#003143"/><path d="M37.27 20.45a.594.594 0 0 0 .064-.55l-2.35-6.09a1.812 1.812 0 0 0-1.68-1.153h-7.969a.594.594 0 0 0-.594.594v6.864c0 .328.266.594.594.594H36.78a.594.594 0 0 0 .49-.258zm-11.34-.93v-5.675h7.374c.251 0 .48.158.571.392l2.039 5.284h-9.985z" fill="#003143"/><path fill-rule="evenodd" clip-rule="evenodd" d="M37.434 20.564a.794.794 0 0 1-.655.345H25.335a.794.794 0 0 1-.794-.794V13.25c0-.438.356-.794.794-.794h7.97c.82 0 1.57.514 1.865 1.28l2.35 6.092a.795.795 0 0 1-.086.735zm-11.305-6.519v5.276h9.493l-1.933-5.012m2.224 5.212H25.93v-5.676h7.375c.251 0 .48.158.571.392l2.038 5.284zm-9.784-5.476h7.175c.168 0 .324.107.385.264m3.645 5.592a.594.594 0 0 1-.555.808H25.335a.594.594 0 0 1-.594-.594V13.25c0-.328.266-.594.594-.594h7.97c.738 0 1.413.463 1.679 1.152l2.35 6.092z" fill="#003143"/><path d="M31.024 28.84a4.18 4.18 0 0 0-4.175 4.177 4.18 4.18 0 0 0 4.175 4.175 4.18 4.18 0 0 0 4.176-4.175 4.18 4.18 0 0 0-4.176-4.176zm0 7.164a2.99 2.99 0 0 1-2.987-2.987 2.99 2.99 0 0 1 2.987-2.988 2.991 2.991 0 0 1 2.988 2.988 2.991 2.991 0 0 1-2.988 2.987z" fill="#003143"/><path d="M31.024 30.884a2.135 2.135 0 0 0-2.132 2.133c0 1.176.956 2.133 2.133 2.133a2.135 2.135 0 0 0 2.132-2.133 2.135 2.135 0 0 0-2.132-2.133zm0 3.077a.946.946 0 0 1 0-1.89.946.946 0 0 1 0 1.89zm-10.408-6.578H16.45a.594.594 0 1 0 0 1.188h4.167a.594.594 0 0 0 0-1.188z" fill="#003143"/><path fill-rule="evenodd" clip-rule="evenodd" d="M16.45 27.183h4.166a.794.794 0 1 1 0 1.588H16.45a.794.794 0 0 1 0-1.588zm0 .2h4.166a.594.594 0 1 1 0 1.188H16.45a.594.594 0 0 1 0-1.188z" fill="#003143"/><path d="M20.616 29.467H16.45a.594.594 0 1 0 0 1.188h4.167a.594.594 0 0 0 0-1.188z" fill="#003143"/><path fill-rule="evenodd" clip-rule="evenodd" d="M16.45 29.267h4.166a.794.794 0 1 1 0 1.588H16.45a.794.794 0 0 1 0-1.588zm0 .2h4.166a.594.594 0 1 1 0 1.188H16.45a.594.594 0 0 1 0-1.188z" fill="#003143"/><path d="M25.335 21.853a.594.594 0 1 0 0 1.188h2.512a.594.594 0 1 0 0-1.188h-2.512z" fill="#003143"/><path fill-rule="evenodd" clip-rule="evenodd" d="M24.541 22.448c0-.439.355-.795.794-.795h2.512a.794.794 0 0 1 0 1.588h-2.512a.794.794 0 0 1-.794-.793zm.2 0c0-.329.266-.595.594-.595h2.512a.594.594 0 0 1 0 1.188h-2.512a.594.594 0 0 1-.594-.593z" fill="#003143"/></g><defs><clipPath id="clip0"><path fill="#fff" d="M0 0h40v40H0z"/></clipPath></defs></svg>